<svg version="1.2" xmlns="http://www.w3.org/2000/svg" viewBox="0 0 20 20" width="20" height="20">
	<title>TELEFONO</title>
	<style>
		.s0 { fill: #4a4a4a } 
	</style>
	<path class="s0" d="m2.2 7.4c0.8 2.4 2.1 4.6 3.9 6.5 1.9 1.8 4.1 3.1 6.5 3.9q0.6 0.3 1.3 0.2 0.7-0.1 1.3-0.5l2.1-1.3q0.3-0.2 0.5-0.4 0.2-0.3 0.2-0.7 0-0.3-0.1-0.6-0.1-0.3-0.3-0.6l-1.6-1.6c-0.4-0.3-0.9-0.5-1.4-0.5-0.5 0-1.1 0.2-1.4 0.5l-1.1 1.1c-1.3-0.4-2.5-1.1-3.4-2.1-1-0.9-1.7-2.1-2.1-3.4l1.1-1.1c0.3-0.3 0.5-0.9 0.5-1.4 0-0.5-0.2-1-0.5-1.4l-1.6-1.6q-0.3-0.2-0.6-0.3-0.3-0.1-0.6-0.1-0.4 0-0.7 0.2-0.2 0.2-0.4 0.5l-1.3 2.1q-0.4 0.6-0.5 1.3-0.1 0.7 0.2 1.3z"/>
</svg>